<svg width="22" height="26" viewBox="0 0 22 26" fill="none" xmlns="http://www.w3.org/2000/svg">
<path d="M0.410625 23.84C4.11729 21.6533 7.15729 19.24 9.53063 16.6C11.904 13.96 13.0906 11.4133 13.0906 8.96C13.0906 7.65333 12.6773 6.61333 11.8506 5.84C11.0506 5.04 9.91729 4.64 8.45063 4.64C7.06396 4.64 5.89063 4.90667 4.93063 5.44C3.99729 5.94667 3.07729 6.61333 2.17063 7.44L0.650625 5.24C1.18396 4.57333 1.94396 3.89333 2.93063 3.2C3.94396 2.50667 5.11729 1.93333 6.45063 1.48C7.78396 0.999998 9.13063 0.759998 10.4906 0.759998C12.4373 0.759998 14.064 1.09333 15.3706 1.76C16.704 2.42667 17.6906 3.30667 18.3306 4.4C18.9706 5.49333 19.2906 6.70667 19.2906 8.04C19.2906 10.6 18.064 13.1733 15.6106 15.76C13.1573 18.3467 10.0373 20.72 6.25063 22.88L17.8506 21.8L19.3706 18.44L21.8906 18.96L20.7306 26H1.25063L0.410625 23.84Z" fill="#92E3A9"/>
</svg>
