<svg width="20" height="33" viewBox="0 0 20 33" fill="none" xmlns="http://www.w3.org/2000/svg">
<path d="M5.43188 32.4C4.65854 32.4 3.80521 32.3333 2.87188 32.2C1.96521 32.0933 1.21854 31.96 0.631875 31.8V28.84C1.75188 29.1867 2.95188 29.36 4.23188 29.36C6.09854 29.36 7.71188 29.0533 9.07188 28.44C10.4585 27.8267 11.5119 27 12.2319 25.96C12.9519 24.92 13.3119 23.7733 13.3119 22.52C13.3119 20.8133 12.8052 19.4933 11.7919 18.56C10.7785 17.6267 9.27188 17.1333 7.27188 17.08L4.87188 17.68L4.03188 15.24C5.12521 15.0533 6.20521 14.72 7.27188 14.24C8.81854 13.5467 10.0185 12.68 10.8719 11.64C11.7252 10.5733 12.1519 9.44 12.1519 8.24C12.1519 6.90667 11.7385 5.93333 10.9119 5.32C10.1119 4.70667 9.08521 4.4 7.83188 4.4C6.65854 4.4 5.55188 4.6 4.51188 5C3.49854 5.4 2.63188 5.89333 1.91188 6.48L0.511875 4.04C1.28521 3.29333 2.53854 2.56 4.27188 1.84C6.03188 1.12 7.81854 0.759998 9.63188 0.759998C12.1652 0.759998 14.2185 1.30667 15.7919 2.4C17.3919 3.46667 18.1919 5.09333 18.1919 7.28C18.1919 9.2 17.4452 10.8933 15.9519 12.36C14.4585 13.8267 12.6319 14.9467 10.4719 15.72C10.7385 15.6933 11.1385 15.68 11.6719 15.68C14.0452 15.68 15.9652 16.28 17.4319 17.48C18.9252 18.68 19.6719 20.28 19.6719 22.28C19.6985 24.2 19.1252 25.92 17.9519 27.44C16.8052 28.9867 15.1519 30.2 12.9919 31.08C10.8319 31.96 8.31188 32.4 5.43188 32.4Z" fill="#92E3A9"/>
</svg>
