<svg width="26" height="26" viewBox="0 0 26 26" fill="none" xmlns="http://www.w3.org/2000/svg">
<path d="M16.8819 13.2463C16.8819 10.8876 15.0033 9.00068 12.655 9.00068C10.3068 9.00068 8.42815 10.8876 8.42815 13.2463C8.42815 15.605 10.3068 17.492 12.655 17.492C15.0033 17.492 16.8819 15.605 16.8819 13.2463ZM19.0736 13.2463C19.0736 16.863 16.2557 19.6934 12.655 19.6934C9.05435 19.6934 6.23645 16.863 6.23645 13.2463C6.23645 9.62967 9.05435 6.79924 12.655 6.79924C16.2557 6.79924 19.0736 9.62967 19.0736 13.2463ZM20.7956 6.48474C20.7956 7.42822 20.1694 8.05721 19.2301 8.05721C18.2908 8.05721 17.6646 7.42822 17.6646 6.48474C17.6646 5.54126 18.2908 4.91228 19.2301 4.91228C20.1694 4.91228 20.7956 5.69851 20.7956 6.48474ZM12.655 2.86808C10.7764 2.86808 6.86265 2.71083 5.29715 3.33981C4.2013 3.81155 3.262 4.75503 2.9489 5.85576C2.3227 7.42822 2.47925 11.3594 2.47925 13.2463C2.47925 15.1333 2.3227 19.0645 2.9489 20.6369C3.262 21.7376 4.2013 22.6811 5.29715 22.9956C6.86265 23.6246 10.933 23.4674 12.655 23.4674C14.3771 23.4674 18.4474 23.6246 20.0129 22.9956C21.1087 22.5239 21.8915 21.7376 22.3611 20.6369C22.9873 18.9072 22.8308 14.976 22.8308 13.2463C22.8308 11.5166 22.9873 7.42822 22.3611 5.85576C22.048 4.75503 21.1087 3.81155 20.0129 3.49706C18.4474 2.71083 14.5336 2.86808 12.655 2.86808ZM25.179 13.2463V18.4355C25.179 20.3224 24.5528 22.2094 23.1439 23.7818C21.7349 25.1971 19.8563 25.826 17.8212 25.826H7.48885C5.61025 25.826 3.73165 25.1971 2.16615 23.7818C0.91375 22.3666 0.131001 20.4797 0.131001 18.4355V13.2463V8.05721C0.131001 6.013 0.91375 4.12605 2.16615 2.71083C3.73165 1.45286 5.61025 0.666626 7.48885 0.666626H17.8212C19.6998 0.666626 21.5784 1.29561 23.1439 2.71083C24.3963 4.12605 25.179 6.013 25.179 8.05721V13.2463Z" fill="white"/>
</svg>
