<svg width="29" height="25" viewBox="0 0 29 25" fill="none" xmlns="http://www.w3.org/2000/svg">
<path d="M28.4433 3.69191C27.402 4.14308 26.2689 4.46779 25.1017 4.59425C26.3135 3.87113 27.221 2.72872 27.6538 1.38136C26.5167 2.06082 25.271 2.53726 23.972 2.78956C23.429 2.20655 22.7724 1.74209 22.0429 1.42514C21.3135 1.10818 20.5268 0.945516 19.732 0.94728C16.5164 0.94728 13.9302 3.56544 13.9302 6.77833C13.9302 7.22951 13.9847 7.68068 14.0731 8.11476C9.25813 7.86183 4.96376 5.55128 2.10879 2.01369C1.58858 2.90617 1.31597 3.92237 1.31933 4.95656C1.31933 6.97999 2.34358 8.76417 3.90548 9.81349C2.98503 9.77708 2.08613 9.52296 1.2819 9.07179V9.14357C1.2819 11.9771 3.27596 14.3252 5.93357 14.8652C5.43457 14.9954 4.92125 15.062 4.4057 15.0635C4.02798 15.0635 3.67069 15.0259 3.30999 14.9746C4.045 17.2852 6.18538 18.9634 8.7341 19.0181C6.74004 20.5869 4.24236 21.5098 1.53031 21.5098C1.0437 21.5098 0.594528 21.4927 0.12834 21.438C2.70088 23.0957 5.75322 24.0527 9.04035 24.0527C19.7116 24.0527 25.5509 15.1729 25.5509 7.46535C25.5509 7.21242 25.5509 6.95949 25.5339 6.70656C26.6636 5.87599 27.6538 4.84718 28.4433 3.69191Z" fill="white"/>
</svg>
